Coordinates
version=1
nRows=17
nColumns=38
inDegrees=no

Units are S.I. units (second, meters, Newtons, ...)
If the header above contains a line with 'inDegrees', this indicates whether rotational values are in degrees (yes) or radians (no).

endheader
time	pelvis_tilt	pelvis_list	pelvis_rotation	pelvis_tx	pelvis_ty	pelvis_tz	hip_flexion_r	hip_adduction_r	hip_rotation_r	knee_angle_r	ankle_angle_r	subtalar_angle_r	mtp_angle_r	hip_flexion_l	hip_adduction_l	hip_rotation_l	knee_angle_l	ankle_angle_l	subtalar_angle_l	mtp_angle_l	lumbar_extension	lumbar_bending	lumbar_rotation	arm_flex_r	arm_add_r	arm_rot_r	elbow_flex_r	pro_sup_r	wrist_flex_r	wrist_dev_r	arm_flex_l	arm_add_l	arm_rot_l	elbow_flex_l	pro_sup_l	wrist_flex_l	wrist_dev_l
1.05	-2.67224	1.43627	-1.99683	0.744205	0.697885	0.95209	0.223048	-0.180864	-0.0303226	1.2774	-0.221686	0	0	0.0109438	0.12276	-0.293412	0.179729	0.0303565	0	0	-0.208177	-0.0091169	0.0900568	-0.0271534	-0.311065	0.659468	0.408706	0.892057	0	0	0.104953	-0.183786	0.3345	0.283802	1.5708	0	0
1.06	-2.70871	1.43727	-1.95595	0.743168	0.705492	0.953126	0.248572	-0.172032	-0.0214106	1.28503	-0.201021	0	0	-0.00245885	0.119087	-0.287798	0.174062	0.0340428	0	0	-0.212881	-0.00254588	0.0837068	-0.0197309	-0.308361	0.660776	0.403153	0.894661	0	0	0.112402	-0.180441	0.32637	0.273774	1.5708	0	0
1.07	-2.74397	1.43881	-1.91625	0.742243	0.713027	0.954026	0.273224	-0.163144	-0.0140351	1.28717	-0.179681	0	0	-0.0139198	0.114598	-0.283613	0.170116	0.0383724	0	0	-0.216669	0.00394682	0.0779355	-0.0121311	-0.305361	0.663996	0.396889	0.896403	0	0	0.120523	-0.177521	0.318914	0.263281	1.5708	0	0
1.08	-2.68513	1.4405	-1.96769	0.741703	0.721716	0.953313	0.30085	-0.159723	0.00318138	1.29073	-0.150397	0	0	-0.0213167	0.121543	-0.277296	0.16699	0.0454394	0	0	-0.21122	-0.00366929	0.0683189	-0.00901506	-0.298137	0.667968	0.391196	0.89551	0	0	0.123827	-0.181731	0.314028	0.259026	1.5708	0	0
1.09	-2.73993	1.44196	-1.9077	0.739722	0.729173	0.954117	0.322335	-0.163877	0.0121876	1.27882	-0.127196	0	0	-0.0320284	0.115677	-0.269944	0.166699	0.0512904	0	0	-0.215532	0.00641646	0.0622307	-0.00156794	-0.297615	0.672452	0.386741	0.892448	0	0	0.129442	-0.180398	0.313568	0.257144	1.5708	0	0
1.1	-2.78208	1.44256	-1.86149	0.738996	0.736706	0.954946	0.339371	-0.156214	0.0140898	1.26368	-0.11573	0	0	-0.0427056	0.109884	-0.263816	0.166375	0.0574303	0	0	-0.219526	0.0129678	0.057409	0.0060089	-0.296265	0.67916	0.382936	0.889664	0	0	0.135356	-0.181372	0.314392	0.255175	1.5708	0	0
1.11	-2.82385	1.44308	-1.81667	0.738357	0.744282	0.955708	0.354708	-0.149132	0.0139888	1.24345	-0.102165	0	0	-0.0534947	0.104208	-0.259288	0.165323	0.0631424	0	0	-0.222887	0.0193635	0.0538849	0.0127681	-0.295682	0.687528	0.380044	0.887084	0	0	0.141183	-0.182525	0.315868	0.253079	1.5708	0	0
1.12	-2.86602	1.44403	-1.77142	0.737697	0.751913	0.956288	0.368731	-0.143266	0.010433	1.21797	-0.084482	0	0	-0.0632831	0.0983946	-0.256832	0.164149	0.0695321	0	0	-0.225388	0.0258767	0.0506967	0.0186718	-0.296466	0.696185	0.379663	0.883458	0	0	0.146994	-0.183724	0.317671	0.251583	1.5708	0	0
1.13	-2.91288	1.44461	-1.72212	0.737142	0.759584	0.956801	0.380275	-0.137819	0.00431963	1.18707	-0.0641512	0	0	-0.0729786	0.092113	-0.256655	0.163316	0.0774833	0	0	-0.227882	0.0326711	0.0485352	0.02371	-0.298506	0.705342	0.381984	0.876676	0	0	0.152475	-0.185033	0.320354	0.250901	1.5708	0	0
1.14	-2.96147	1.44467	-1.67196	0.736718	0.767364	0.957317	0.389222	-0.132519	-0.003646	1.15104	-0.0452368	0	0	-0.0835326	0.0856352	-0.254892	0.162102	0.0845154	0	0	-0.230416	0.0394968	0.0473854	0.0279137	-0.300661	0.713024	0.385378	0.868804	0	0	0.157293	-0.186564	0.323662	0.250493	1.5708	0	0
1.15	-2.99076	1.44393	-1.63887	0.737301	0.775207	0.957829	0.393004	-0.115409	-0.017364	1.11154	-0.0344984	0	0	-0.0948045	0.0794341	-0.251676	0.160512	0.0901541	0	0	-0.233182	0.0425152	0.0450713	0.0312831	-0.301563	0.722448	0.389474	0.859612	0	0	0.16275	-0.189666	0.326931	0.250428	1.5708	0	0
1.16	-3.03985	1.44193	-1.5871	0.736714	0.78305	0.958381	0.394573	-0.111961	-0.0307705	1.06445	-0.0229874	0	0	-0.107513	0.0726901	-0.246257	0.158932	0.0938002	0	0	-0.237431	0.0497878	0.0433264	0.0350898	-0.304833	0.732808	0.39382	0.848816	0	0	0.167599	-0.190401	0.330518	0.250376	1.5708	0	0
1.17	-3.0834	1.43939	-1.5407	0.736106	0.790989	0.958828	0.393383	-0.109761	-0.0473132	1.01344	-0.0166877	0	0	-0.120652	0.0665564	-0.242204	0.156815	0.0987084	0	0	-0.241751	0.0565341	0.0414872	0.0384933	-0.308079	0.741576	0.3987	0.836124	0	0	0.172291	-0.190793	0.333504	0.250085	1.5708	0	0
1.18	-3.12145	1.43602	-1.5002	0.735533	0.799106	0.959272	0.388944	-0.108451	-0.066808	0.958369	-0.0118568	0	0	-0.135527	0.0608821	-0.237335	0.153819	0.103297	0	0	-0.246499	0.062792	0.0398478	0.041621	-0.310548	0.749614	0.402296	0.82322	0	0	0.176611	-0.190615	0.334873	0.249346	1.5708	0	0
1.19	3.12986	1.43312	-1.46699	0.735083	0.807463	0.959549	0.383015	-0.107544	-0.0887909	0.899506	-0.00745486	0	0	-0.150972	0.0560424	-0.233439	0.149005	0.106915	0	0	-0.250177	0.0681423	0.0389782	0.0440039	-0.311653	0.75511	0.404071	0.812986	0	0	0.180498	-0.189825	0.334706	0.2475	1.5708	0	0
1.2	3.0994	1.43047	-1.43499	0.734622	0.815931	0.959664	0.374761	-0.106571	-0.114829	0.836196	-0.00347619	0	0	-0.166529	0.0513104	-0.230353	0.143199	0.110562	0	0	-0.2532	0.0735673	0.0378635	0.0459426	-0.312473	0.760327	0.405423	0.804769	0	0	0.18497	-0.187962	0.332468	0.242105	1.5708	0	0
1.21	3.07313	1.42761	-1.40593	0.734122	0.824423	0.95965	0.36352	-0.105681	-0.144547	0.768687	0.000752671	0	0	-0.182251	0.0466329	-0.226459	0.137159	0.114858	0	0	-0.256366	0.0786591	0.0355078	0.0478105	-0.312301	0.763316	0.405812	0.799671	0	0	0.189553	-0.186301	0.330479	0.236099	1.5708	0	0
